<svg width="224" height="55" viewBox="0 0 224 55" fill="none" xmlns="http://www.w3.org/2000/svg">
<g clip-path="url(#clip0_546_736)" filter="url(#filter0_d_546_736)">
<path d="M29.1508 44.998C26.9779 44.998 24.8976 44.6552 22.4142 43.9279L21.9224 43.7833C18.6105 42.8083 17.2378 42.406 13.5994 42.6141C10.7168 42.7786 7.53398 43.8923 7.50173 43.9041L6 44.4352L7.03005 43.2363C7.25581 42.9747 12.398 37.0238 16.5706 34.7905C14.6798 32.5274 12.9967 30.0325 12.3758 27.2186L12.1279 26.097L13.0551 26.7965C13.8594 27.4029 14.7383 27.7417 15.7179 27.819C14.446 26.6716 12.2226 24.3214 11.9323 21.7234L11.7973 20.5245L12.662 21.3806C13.7425 22.4527 14.4863 22.8649 15.3994 23.0274C13.2809 20.255 12.9785 16.6127 12.9664 16.4443L12.7991 14.2367L13.7808 16.2303C14.317 17.3222 15.1958 17.887 15.863 18.1723C14.6173 15.5228 14.4258 12.047 14.4157 11.8825L14.3049 9.71658L15.2321 11.6844C15.9155 13.1349 16.881 13.6323 17.5139 13.8008C16.629 11.1751 16.623 6.1595 16.623 5.92765V4.04507L17.4394 5.7493C17.4938 5.86225 22.9242 17.1835 27.2439 22.2307C27.5302 22.5656 27.8346 22.9025 28.145 23.2315C32.0334 27.3474 36.7462 29.8799 37.5182 30.2802C37.8689 30.2446 38.9312 30.1237 40.2737 29.8839L40.4269 30.7122C39.6327 30.8549 38.9433 30.954 38.4293 31.0214L39.6146 32.0618L39.0441 32.6899L37.1876 31.061C36.6232 30.7737 31.6181 28.146 27.5161 23.8042C27.1956 23.4633 26.8831 23.1165 26.5868 22.7717C23.1923 18.8045 19.2515 11.296 17.5321 7.87363C17.6248 9.83746 17.8768 12.7663 18.5641 14.1159L18.8504 14.6786L18.2114 14.7242C18.1348 14.7282 16.7097 14.8114 15.4538 13.5174C15.6736 14.9957 16.1372 17.1418 17.0886 18.642L17.5663 19.397L16.6693 19.282C16.5948 19.2721 15.2624 19.0878 14.1053 18.0494C14.45 19.5278 15.1858 21.6878 16.7137 23.2473L17.4454 23.9944L16.3912 23.9607C15.0084 23.9152 14.0912 23.6437 13.0995 22.8946C14.1194 25.5996 17.0826 27.8567 17.1168 27.8824L17.9695 28.5245L16.9012 28.6355C15.6433 28.7663 14.5165 28.576 13.4905 28.0608C14.5891 31.4692 17.2398 34.3525 19.8099 37.1487C20.1223 37.4895 20.4327 37.8264 20.7371 38.1613L20.0981 38.7221C19.7958 38.3892 19.4874 38.0523 19.1749 37.7134C18.5037 36.9842 17.8123 36.2312 17.135 35.4484C14.1456 36.9862 10.4548 40.7533 8.70311 42.6497C9.94078 42.303 11.7812 41.8729 13.553 41.7719C17.3426 41.5559 18.8564 41.9998 22.1723 42.9747L22.6622 43.1194C26.2018 44.1558 28.8928 44.3837 32.2631 43.9319C34.9179 43.5752 37.2158 42.6874 39.29 41.219C40.8442 40.1192 42.5455 38.623 43.7872 37.5331C44.1702 37.1982 44.5128 36.895 44.8051 36.6473L45.3675 37.2834C45.0793 37.5291 44.7386 37.8284 44.3596 38.1613C43.1038 39.2651 41.3824 40.7771 39.792 41.9027C37.6008 43.4543 35.1779 44.3896 32.3801 44.7662C31.2492 44.9187 30.191 44.996 29.1549 44.996L29.1508 44.998ZM29.6608 42.3862C28.145 42.3862 27.1311 42.2237 27.0202 42.2059C25.8571 42.0097 24.7061 41.7005 23.5995 41.2844L23.9059 40.4977C24.9601 40.894 26.0547 41.1893 27.1633 41.3755C27.4495 41.4231 34.2386 42.5051 39.4836 38.5913C41.5074 37.0813 41.6021 36.1024 41.5819 35.8388C41.5033 34.7588 40.7474 34.1326 40.1387 33.6292L40.0701 33.5718L40.6224 32.9277L40.691 32.9832C41.3461 33.5242 42.3338 34.3407 42.4366 35.7774C42.481 36.3679 42.2209 37.6044 40.0016 39.2611C36.4801 41.8888 32.3075 42.3862 29.6588 42.3862H29.6608ZM30.4288 38.732C28.1772 38.732 26.3369 38.2029 25.2584 37.7986L25.5648 37.0119C27.0424 37.5668 30.0458 38.3694 33.5431 37.5173C35.5105 37.0397 37.3791 36.0924 38.9474 34.7806L39.5037 35.4226C37.8347 36.8177 35.8451 37.8264 33.7508 38.3357C32.5796 38.621 31.4609 38.732 30.4308 38.732H30.4288ZM29.0601 35.8091C27.4395 35.8091 25.8168 35.5415 24.2868 35.0204L24.569 34.2257C26.5062 34.8876 28.6046 35.1135 30.6385 34.8777C32.6965 34.6399 34.7062 33.9265 36.4458 32.8187L36.9115 33.5262C35.061 34.7033 32.9263 35.4603 30.7392 35.7139C30.1829 35.7793 29.6205 35.811 29.0601 35.811V35.8091ZM28.1248 32.896C25.8833 32.896 24.1054 32.2223 23.0008 31.6496L23.3999 30.9045C24.436 31.4415 26.1232 32.0796 28.2397 32.0538C30.3905 32.03 32.0757 31.3384 33.1118 30.7638L33.5331 31.497C32.4103 32.1212 30.582 32.8703 28.2498 32.896C28.2075 32.896 28.1651 32.896 28.1248 32.896ZM23.3798 28.2213C23.0008 28.2213 22.6057 28.1975 22.1965 28.142C19.6768 27.8071 17.9695 26.5032 17.1733 25.7561L17.7659 25.1477C18.4855 25.8235 20.0336 27.0046 22.3114 27.3078C24.4098 27.5872 26.105 26.9768 26.9295 26.5884L27.3004 27.3474C26.5505 27.7001 25.1476 28.2213 23.3798 28.2213ZM24.6114 25.5282C23.5793 25.5282 22.3417 25.3618 21.0375 24.8287C18.6367 23.8478 17.2801 22.1218 16.6855 21.1805L17.4132 20.7366C17.9534 21.5927 19.185 23.1601 21.366 24.0499C23.1822 24.791 24.8553 24.7494 25.9377 24.583L26.0708 25.4153C25.6555 25.4787 25.1617 25.5262 24.6114 25.5262V25.5282ZM24.8654 23.4257C23.7083 23.2236 21.9909 22.7063 20.3703 21.3985C18.163 19.6169 17.3446 17.342 17.0543 16.1451L17.8869 15.9489C18.1529 17.0428 18.9008 19.1215 20.9145 20.7465C22.392 21.9394 23.9603 22.4111 25.0165 22.5954L24.8654 23.4237V23.4257Z" fill="#FAF8F8"/>
<path d="M40.6547 30.0008C40.6265 29.9731 37.9415 27.1928 39.7315 22.3596C41.2876 18.21 40.3785 14.6767 39.7758 12.3383C39.6368 11.7973 39.5158 11.3316 39.4432 10.9274C39.155 9.34402 36.6897 3.86474 36.5849 3.6309L35.8472 2L35.7625 3.78349C35.7625 3.82313 35.6073 7.07899 35.4097 9.4867C34.8715 8.39481 34.1862 6.78372 34.1035 5.50555L34.0269 4.32647L33.3275 5.28757C32.2712 6.74013 32.3458 9.55606 32.8679 11.6348C32.2652 10.7252 31.8661 9.29052 31.6806 7.3485L31.5657 6.14761L30.8945 7.15627C29.5903 9.1201 29.9753 11.8607 30.3885 13.4996C29.9088 12.9249 29.3786 12.0113 29.0964 10.6103L28.8182 9.23503L28.28 10.533C27.4516 12.5246 27.768 14.6093 28.143 16.6405C27.9112 16.4403 27.6975 16.1332 27.4979 15.7151L26.9859 14.637L26.5989 16.1609C26.0627 18.2397 25.2524 21.3826 27.51 23.8002L27.7862 23.5505L27.51 23.8022C31.8419 28.3878 37.1796 31.059 37.234 31.0848L37.3448 31.1403L37.4678 31.1284C37.5182 31.1244 38.7377 31.0095 40.4209 30.7083L41.2131 30.5676L40.6507 30.0008H40.6547ZM32.3821 13.882C32.4587 14.5736 32.757 15.8914 33.8878 16.9615C34.4321 17.4767 35.1134 17.8711 35.8572 18.099L35.6012 18.9035C34.7324 18.636 33.9342 18.1743 33.2932 17.5679C31.9668 16.3135 31.6201 14.7777 31.5294 13.9732L32.3821 13.882ZM35.8411 21.8602C35.0207 21.8602 33.4424 21.7016 31.9104 20.6573C30.578 19.7517 29.8725 18.5964 29.5137 17.7859L30.2998 17.449C30.6123 18.1584 31.2311 19.1711 32.3982 19.9637C33.7407 20.8773 35.1235 21.016 35.8411 21.016C35.8492 21.016 35.8552 21.016 35.8633 21.016L35.8673 21.8582H35.8431L35.8411 21.8602ZM36.6897 16.04C36.1677 15.7111 35.7101 15.3049 35.3291 14.8372C34.4785 13.7928 34.1942 12.6653 34.1055 11.9023L34.9562 11.8072C35.0328 12.4592 35.2747 13.4243 35.9963 14.312C36.3188 14.7084 36.7079 15.0532 37.1513 15.3346L36.6877 16.042L36.6897 16.04Z" fill="#FAF8F8"/>
<path d="M64.4244 26.4715C64.2389 25.988 63.6685 25.7244 62.7291 25.6887C61.1468 25.6293 59.2399 25.2092 58.7279 24.9555C58.5807 24.8822 58.4114 24.7395 58.232 24.5889C57.7885 24.2183 57.2382 23.7546 56.3654 23.6833C56.0187 23.6556 55.7002 23.6615 55.3898 23.7031C54.1501 23.8696 53.2713 24.4859 52.5637 24.9793L52.3299 25.1418C50.5863 26.3387 48.8064 27.0918 46.1113 28.2332L45.8432 28.3461C44.0029 29.119 41.7996 29.6065 40.2737 29.8799L38.641 30.1713L40.2133 30.6924C43.0151 31.6198 44.4685 33.6788 44.658 36.9862L44.7063 37.8422L45.3655 37.2795C46.6153 36.2133 49.0039 34.3743 50.804 33.0248C52.6121 31.822 55.4483 30.2129 56.5368 29.8621C57.202 29.6481 58.1735 29.4757 59.1129 29.3072C59.8265 29.1804 60.4997 29.0615 60.9996 28.9288C62.1587 28.6216 63.8983 27.718 64.1966 27.4385C64.4103 27.2384 64.5735 26.848 64.4264 26.4655L64.4244 26.4715ZM55.4543 25.7224C55.4543 25.7224 54.1138 25.9721 53.1846 26.2991C53.1846 26.2991 54.2993 25.4093 55.1963 25.2904C56.0933 25.1695 56.7121 25.7105 56.9581 25.9701C56.9581 25.9701 56.7726 26.5706 56.2606 26.4834C55.7506 26.3962 55.4221 26.0118 55.4543 25.7244V25.7224ZM61.9591 27.062C60.3465 28.0231 56.3876 28.253 56.3876 28.253C56.2364 27.4167 56.4702 27.4485 56.9722 26.9867C57.4741 26.523 57.6353 25.2528 57.6353 25.2528C57.7301 25.7561 58.1756 26.2971 58.7561 26.634C59.3386 26.9709 63.2714 26.0989 63.2714 26.0989C63.0537 26.3823 63.5677 26.0989 61.9551 27.062H61.9591Z" fill="#FAF8F8"/>
<path d="M70.9695 25.661L71.7032 25.5857C72.3785 25.4906 72.5902 25.3776 72.5902 25.2627V14.3755C72.5902 14.2427 72.4732 14.205 71.5097 14.0901L70.9897 14.0326L70.9312 13.9197H77.5872L77.5287 14.0326L76.6035 14.1079C76.1217 14.1456 75.7166 14.2605 75.7166 14.4309V25.4886L76.662 25.6015C78.3028 25.6015 79.8831 24.577 81.4655 21.3707L81.5804 21.1428H81.6953L81.0785 25.772H70.911L70.9695 25.659V25.661Z" fill="#FAF8F8"/>
<path d="M82.9531 21.8503C82.9531 19.1948 85.0757 17.2786 87.68 17.2786C90.1493 17.2786 91.133 18.852 91.133 20.0291C91.133 20.1619 91.1128 20.2749 91.0947 20.3898C91.0947 20.3898 86.9665 20.3323 85.886 20.2947C85.8477 20.5226 85.8659 20.8832 85.8659 21.1111C85.8659 23.1225 86.9665 24.583 88.7605 24.583C89.8611 24.583 90.6331 24.0895 91.0947 23.1027L91.2096 23.1601C90.4759 25.0388 89.1838 26.0811 87.0995 26.0811C84.727 26.0811 82.9511 24.2421 82.9511 21.8523L82.9531 21.8503ZM88.6053 20.0846C88.6053 18.9471 88.3936 17.5421 87.4099 17.5421C86.7346 17.5421 86.0594 18.4339 85.9042 20.0846H88.6053Z" fill="#FAF8F8"/>
<path d="M97.2125 24.1629L97.1742 24.1252C96.2288 25.2072 95.3802 25.9642 94.338 25.9642C93.2193 25.9642 92.3505 25.0724 92.3505 24.1807C92.3505 22.7381 93.6043 21.8661 97.2508 20.8991L97.2709 20.1976C97.3294 18.85 96.6158 17.8275 95.3217 17.8275C94.588 17.8275 94.3763 17.9979 94.3763 18.2258C94.3763 18.3962 95.0314 18.9471 95.0314 19.4406C95.0314 20.0846 94.4711 20.578 93.7192 20.578C93.0641 20.578 92.4835 20.2372 92.4835 19.5535C92.4835 18.1129 95.3016 17.3162 96.9605 17.3162C99.3331 17.3162 100.067 18.2654 100.008 20.1995L99.8531 23.6516C99.8148 24.4106 100.182 24.7514 100.605 24.7514C100.913 24.7514 101.204 24.4106 101.415 24.1074L101.55 24.1648C101.03 24.791 100.103 25.986 98.9843 25.986C97.9805 25.986 97.3818 25.2845 97.2085 24.1648L97.2125 24.1629ZM97.1339 23.935L97.2689 21.1091C95.61 21.5451 95.0113 22.1713 95.0113 23.176C95.0113 23.935 95.3782 24.4839 96.1119 24.4839C96.5372 24.4839 96.8456 24.2382 97.1339 23.933V23.935Z" fill="#FAF8F8"/>
<path d="M108.654 24.258L108.616 24.2005C107.902 25.1497 106.763 26.0395 105.568 26.0395C103.697 26.0395 102.095 24.2382 102.095 21.9038C102.095 18.7747 104.776 17.3896 106.918 17.3896C107.749 17.3896 108.289 17.5025 108.616 17.6749C108.616 17.6749 108.654 17.7126 108.654 17.6749V15.608C108.654 14.4706 108.519 14.2605 107.882 14.1476L107.245 14.0346L107.265 13.9593L111.393 13.0101V23.6892C111.393 24.8267 111.508 24.9595 112.165 25.1299L112.629 25.2449L112.609 25.3202L108.634 26.0593L108.654 24.258ZM108.654 23.9746V19.2702C108.134 18.3209 107.303 17.5818 106.801 17.5818C105.644 17.5818 105.084 19.2325 105.084 21.2617C105.084 23.2909 105.894 24.6385 107.168 24.6385C107.844 24.6385 108.249 24.3353 108.654 23.9746Z" fill="#FAF8F8"/>
<path d="M113.266 21.8503C113.266 19.1948 115.388 17.2786 117.993 17.2786C120.462 17.2786 121.446 18.852 121.446 20.0291C121.446 20.1619 121.426 20.2749 121.407 20.3898C121.407 20.3898 117.279 20.3323 116.199 20.2947C116.16 20.5226 116.179 20.8832 116.179 21.1111C116.179 23.1225 117.279 24.583 119.073 24.583C120.174 24.583 120.946 24.0895 121.407 23.1027L121.522 23.1601C120.789 25.0388 119.497 26.0811 117.412 26.0811C115.04 26.0811 113.264 24.2421 113.264 21.8523L113.266 21.8503ZM118.918 20.0846C118.918 18.9471 118.706 17.5421 117.723 17.5421C117.047 17.5421 116.372 18.4339 116.217 20.0846H118.918Z" fill="#FAF8F8"/>
<path d="M122.72 25.661L122.952 25.6412C123.55 25.6035 123.762 25.5659 123.762 25.338V20.1024C123.762 18.9273 123.627 18.7747 122.972 18.6043L122.528 18.5092L122.548 18.4339L126.562 17.3519L126.503 19.0581H126.523C127.431 18.2813 128.664 17.3123 129.92 17.3123C130.575 17.3123 131.021 17.558 131.464 17.9761C131.908 18.4319 132.081 19.3415 132.081 20.2531V25.3558C132.081 25.4688 132.178 25.5262 133.085 25.6412L133.258 25.661L133.317 25.774H128.319L128.378 25.661L128.725 25.6412C129.4 25.6035 129.362 25.4886 129.362 25.338V20.5206C129.362 19.288 128.725 18.9075 127.876 18.9075C127.239 18.9075 126.872 19.0977 126.505 19.3058V25.3756C126.505 25.5282 126.582 25.5837 127.257 25.6412L127.547 25.661L127.586 25.774H122.665L122.724 25.661H122.72Z" fill="#FAF8F8"/>
<path d="M133.911 25.661L134.123 25.6412C134.74 25.6035 134.953 25.5659 134.953 25.338V15.6457C134.953 14.5082 134.857 14.3556 134.181 14.1852L133.738 14.0723L133.758 13.997L137.733 13.0477V19.0601C138.64 18.2833 139.856 17.3143 141.091 17.3143C141.746 17.3143 142.21 17.5421 142.653 17.9781C143.097 18.4339 143.27 19.3435 143.27 20.255V25.3578C143.27 25.4708 143.347 25.5282 144.274 25.6432L144.447 25.663L144.506 25.7759H139.527L139.585 25.663L139.932 25.6432C140.607 25.6055 140.549 25.4906 140.549 25.34V20.4849C140.549 19.29 139.95 18.9095 139.082 18.9095C138.465 18.9095 138.06 19.0997 137.693 19.3078V25.3776C137.693 25.5302 137.769 25.5857 138.445 25.6432L138.715 25.663L138.773 25.7759H133.853L133.911 25.663V25.661Z" fill="#FAF8F8"/>
<path d="M150.081 24.1629L150.043 24.1252C149.098 25.2072 148.249 25.9642 147.207 25.9642C146.088 25.9642 145.219 25.0724 145.219 24.1807C145.219 22.7381 146.473 21.8661 150.12 20.8991L150.14 20.1976C150.198 18.85 149.485 17.8275 148.191 17.8275C147.457 17.8275 147.245 17.9979 147.245 18.2258C147.245 18.3962 147.9 18.9471 147.9 19.4406C147.9 20.0846 147.34 20.578 146.588 20.578C145.933 20.578 145.353 20.2372 145.353 19.5535C145.353 18.1129 148.171 17.3162 149.83 17.3162C152.202 17.3162 152.936 18.2654 152.877 20.1995L152.722 23.6516C152.684 24.4106 153.051 24.7514 153.474 24.7514C153.782 24.7514 154.073 24.4106 154.284 24.1074L154.419 24.1648C153.899 24.791 152.972 25.986 151.853 25.986C150.849 25.986 150.251 25.2845 150.077 24.1648L150.081 24.1629ZM150.003 23.935L150.138 21.1091C148.479 21.5451 147.88 22.1713 147.88 23.176C147.88 23.935 148.247 24.4839 148.981 24.4839C149.406 24.4839 149.715 24.2382 150.003 23.933V23.935Z" fill="#FAF8F8"/>
<path d="M155.02 25.661L155.272 25.6412C155.871 25.6035 155.967 25.5659 155.967 25.338V15.6457C155.967 14.5082 155.832 14.3556 155.177 14.1852L154.752 14.0723L154.772 13.997L158.727 13.0477V25.3776C158.727 25.5302 158.882 25.6055 159.537 25.6432L159.769 25.663L159.828 25.7759H154.945L155.022 25.663L155.02 25.661Z" fill="#FAF8F8"/>
<path d="M160.713 25.661L160.964 25.6412C161.563 25.6035 161.66 25.5659 161.66 25.338V15.6457C161.66 14.5082 161.525 14.3556 160.87 14.1852L160.444 14.0723L160.465 13.997L164.419 13.0477V25.3776C164.419 25.5302 164.575 25.6055 165.23 25.6432L165.462 25.663L165.52 25.7759H160.638L160.715 25.663L160.713 25.661Z" fill="#FAF8F8"/>
<mask id="mask0_546_736" style="mask-type:luminance" maskUnits="userSpaceOnUse" x="6" y="2" width="212" height="43">
<path d="M217.992 2H6V45H217.992V2Z" fill="white"/>
</mask>
<g mask="url(#mask0_546_736)">
<path d="M71.6266 43.5574L71.4331 40.8643H71.548L71.9532 41.7937C72.6285 43.3691 73.7089 44.031 75.253 44.031C76.9885 44.031 78.1657 42.8737 78.1657 41.2626C78.1657 39.6515 77.0651 38.8925 75.1562 38.2842C73.4589 37.7333 71.9733 36.899 71.9733 35.06C71.9733 33.3518 73.3622 31.8358 75.6017 31.8358C76.5471 31.8358 77.3372 32.0439 77.9742 32.2718L78.7463 32.0439L78.9196 34.947H78.8047L77.5308 32.6701C77.0288 32.2896 76.4503 32.0063 75.5815 32.0063C74.1544 32.0063 73.1304 32.9555 73.1304 34.2436C73.1304 35.704 74.3459 36.3104 75.9282 36.8613C77.8775 37.5252 79.4598 38.4348 79.4598 40.5036C79.4598 42.4199 77.7041 44.2212 75.2348 44.2212C74.1161 44.2212 72.6688 43.918 71.6266 43.5574Z" fill="#FAF8F8"/>
<path d="M80.4254 40.1231C80.4254 37.6956 82.046 35.6664 84.4972 35.6664C86.4464 35.6664 87.545 36.8237 87.545 38.2643C87.545 38.3595 87.5248 38.3971 87.5067 38.5299L81.9694 38.5101C81.9311 38.7954 81.8928 39.2492 81.8928 39.5346C81.8928 41.7719 83.2252 43.2522 84.9225 43.2522C86.0997 43.2522 86.8717 42.8737 87.6034 41.7342L87.7385 41.7917C86.8697 43.272 85.8276 44.2014 84.2654 44.2014C82.0843 44.2014 80.4254 42.4001 80.4254 40.1231ZM86.0392 38.302C86.0392 37.0318 85.5373 35.8546 84.3601 35.8546C83.2998 35.8546 82.3141 36.9921 82.0057 38.3396L86.0372 38.302H86.0392Z" fill="#FAF8F8"/>
<path d="M92.9472 42.8162V42.7964C92.2135 43.4801 91.385 44.1241 90.4779 44.1241C89.339 44.1241 88.5488 43.3077 88.5488 42.3604C88.5488 41.1278 89.4942 40.2163 93.0822 39.3642L93.1024 38.5299C93.179 36.6334 92.2336 36.1024 91.2318 36.1024C90.4598 36.1024 89.6293 36.576 89.6293 36.8039C89.6293 36.9366 90.111 37.2398 90.111 37.7531C90.111 38.1316 89.7825 38.4922 89.2805 38.4922C88.7786 38.4922 88.4501 38.2069 88.4501 37.7531C88.4501 36.8039 90.6694 35.6664 92.1348 35.6664C93.7374 35.6664 94.5658 36.2549 94.4509 38.4348L94.2574 42.5328C94.2191 43.159 94.4691 43.3869 94.8944 43.3869C95.2028 43.3869 95.4931 43.1392 95.7632 42.8757L95.8599 42.9331C95.5132 43.3513 94.9529 44.1479 94.1627 44.1479C93.4874 44.1479 93.0056 43.6366 92.9472 42.8202V42.8162ZM92.9673 42.5705L93.0822 39.5544C90.3428 40.1984 89.9175 41.0149 89.9175 41.9443C89.9175 42.7984 90.4779 43.3473 91.2298 43.3473C91.8667 43.3473 92.4453 43.0818 92.9653 42.5705H92.9673Z" fill="#FAF8F8"/>
<path d="M95.997 43.8407L96.3437 43.8209C96.9424 43.7833 97.154 43.7634 97.154 43.5356V38.0345C97.154 36.8594 97.019 36.6315 96.3639 36.5363L95.9204 36.461L95.9406 36.3857L98.5268 35.7219L98.4683 38.8707H98.4885C99.0085 36.9168 99.839 35.6842 101.075 35.6842C101.75 35.6842 102.214 36.1578 102.214 36.6513C102.214 37.1071 101.867 37.6005 101.288 37.6005C100.807 37.6005 100.323 37.2398 100.284 36.4432C99.454 36.6136 99.0488 37.4677 98.5086 39.4018V43.5752C98.5086 43.7278 98.5671 43.8031 99.4157 43.8209L100.033 43.8407L100.091 43.9537H95.9426L96.001 43.8407H95.997Z" fill="#FAF8F8"/>
<path d="M102.421 40.1231C102.421 37.658 104.177 35.6664 106.705 35.6664C108.249 35.6664 109.482 36.3679 109.482 37.4122C109.482 37.9057 109.057 38.3218 108.614 38.3218C108.112 38.3218 107.745 37.9612 107.745 37.5252C107.745 36.9188 108.13 36.7286 108.13 36.576C108.13 36.3302 107.475 35.817 106.741 35.817C105.197 35.817 103.885 37.3528 103.885 39.5168C103.885 41.6807 105.217 43.2542 106.914 43.2542C108.091 43.2542 108.805 42.8757 109.519 41.7362L109.674 41.7937C108.825 43.274 107.803 44.2034 106.239 44.2034C104.078 44.2034 102.419 42.402 102.419 40.1251L102.421 40.1231Z" fill="#FAF8F8"/>
<path d="M109.984 43.8407L110.313 43.8209C110.891 43.7833 111.103 43.7634 111.103 43.5356V33.0466C111.103 32.2877 110.988 32.0974 110.331 31.9647L109.888 31.8894L109.908 31.814L112.454 31.1878V37.3528L112.474 37.3904C113.226 36.7642 114.364 35.6822 115.753 35.6822C116.352 35.6822 116.834 35.8725 117.18 36.2133C117.606 36.6493 117.797 37.2378 117.797 38.0345V43.5534C117.797 43.6663 117.797 43.7615 118.763 43.8189L119.033 43.8388L119.091 43.9517H115.233L115.292 43.8388L115.638 43.8189C116.334 43.7813 116.449 43.6862 116.449 43.5336V38.298C116.449 37.1784 115.87 36.6295 114.77 36.6295C113.844 36.6295 113.072 37.0476 112.454 37.6163V43.5732C112.454 43.7258 112.568 43.7634 113.437 43.8189L113.707 43.8388L113.766 43.9517H109.926L109.984 43.8388V43.8407Z" fill="#FAF8F8"/>
<path d="M127.293 42.8162V42.7964C126.56 43.4801 125.731 44.1241 124.824 44.1241C123.685 44.1241 122.895 43.3077 122.895 42.3604C122.895 41.1278 123.841 40.2163 127.429 39.3642L127.449 38.5299C127.525 36.6334 126.58 36.1024 125.578 36.1024C124.806 36.1024 123.976 36.576 123.976 36.8039C123.976 36.9366 124.457 37.2398 124.457 37.7531C124.457 38.1316 124.129 38.4922 123.627 38.4922C123.125 38.4922 122.796 38.2069 122.796 37.7531C122.796 36.8039 125.016 35.6664 126.481 35.6664C128.084 35.6664 128.912 36.2549 128.797 38.4348L128.604 42.5328C128.565 43.159 128.815 43.3869 129.241 43.3869C129.549 43.3869 129.839 43.1392 130.109 42.8757L130.206 42.9331C129.86 43.3513 129.299 44.1479 128.509 44.1479C127.834 44.1479 127.352 43.6366 127.293 42.8202V42.8162ZM127.312 42.5705L127.427 39.5544C124.687 40.1984 124.262 41.0149 124.262 41.9443C124.262 42.7984 124.822 43.3473 125.574 43.3473C126.211 43.3473 126.79 43.0818 127.31 42.5705H127.312Z" fill="#FAF8F8"/>
<path d="M130.341 43.8407L130.688 43.8209C131.287 43.7833 131.498 43.7634 131.498 43.5356V38.0345C131.498 36.8593 131.363 36.6315 130.708 36.5363L130.265 36.461L130.285 36.3857L132.871 35.7219L132.813 37.3528L132.871 37.3904C133.605 36.7642 134.762 35.6822 136.133 35.6822C136.731 35.6822 137.233 35.8527 137.58 36.2133C138.005 36.6315 138.197 37.2378 138.197 38.0523V43.5534C138.197 43.6663 138.197 43.7436 139.162 43.8189L139.432 43.8387L139.491 43.9517H135.651L135.709 43.8387L136.056 43.8189C136.731 43.7813 136.846 43.6862 136.846 43.5336V38.298C136.846 37.1784 136.268 36.6295 135.149 36.6295C134.242 36.6295 133.47 37.0476 132.853 37.6163V43.5732C132.853 43.7258 132.968 43.7634 133.818 43.8189L134.089 43.8387L134.147 43.9517H130.289L130.347 43.8387L130.341 43.8407Z" fill="#FAF8F8"/>
<path d="M146.336 42.5507L146.298 42.5309C145.488 43.4602 144.542 44.1994 143.288 44.1994C141.377 44.1994 139.874 42.5685 139.874 40.2163C139.874 37.3904 142.093 35.7774 144.157 35.7774C145.064 35.7774 145.701 35.9478 146.318 36.2708C146.318 36.2708 146.338 36.2906 146.338 36.2708V33.0268C146.338 32.2877 146.221 32.04 145.566 31.9647L144.929 31.8893L144.949 31.7942L147.689 31.168V42.9093C147.689 43.3275 147.765 43.4602 148.171 43.5157L148.922 43.6287L148.902 43.7238L146.356 44.2549L146.336 42.5487V42.5507ZM146.336 42.2296V37.7154C145.911 36.7484 144.927 35.9894 143.885 35.9894C142.323 35.9894 141.396 37.5827 141.396 39.7446C141.396 41.7164 142.456 43.3493 144.117 43.3493C145.121 43.3493 145.776 42.838 146.336 42.2296Z" fill="#FAF8F8"/>
<path d="M152.974 43.5574L152.781 40.8643H152.895L153.301 41.7937C153.976 43.3691 155.056 44.031 156.6 44.031C158.336 44.031 159.513 42.8737 159.513 41.2626C159.513 39.6515 158.413 38.8925 156.504 38.2842C154.806 37.7333 153.321 36.899 153.321 35.06C153.321 33.3518 154.71 31.8358 156.949 31.8358C157.894 31.8358 158.685 32.0439 159.322 32.2718L160.094 32.0439L160.267 34.947H160.152L158.878 32.6701C158.376 32.2896 157.798 32.0063 156.929 32.0063C155.502 32.0063 154.478 32.9555 154.478 34.2436C154.478 35.704 155.693 36.3104 157.276 36.8613C159.225 37.5252 160.807 38.4348 160.807 40.5036C160.807 42.4199 159.052 44.2212 156.582 44.2212C155.464 44.2212 154.016 43.918 152.974 43.5574Z" fill="#FAF8F8"/>
<path d="M161.773 40.1231C161.773 37.6956 163.393 35.6664 165.845 35.6664C167.794 35.6664 168.892 36.8237 168.892 38.2643C168.892 38.3595 168.872 38.3971 168.854 38.5299L163.317 38.5101C163.279 38.7954 163.24 39.2492 163.24 39.5346C163.24 41.7719 164.573 43.2522 166.27 43.2522C167.447 43.2522 168.219 42.8737 168.951 41.7342L169.086 41.7917C168.217 43.272 167.175 44.2014 165.613 44.2014C163.432 44.2014 161.773 42.4001 161.773 40.1231ZM167.389 38.302C167.389 37.0318 166.887 35.8546 165.71 35.8546C164.649 35.8546 163.664 36.9921 163.355 38.3396L167.387 38.302H167.389Z" fill="#FAF8F8"/>
<path d="M169.608 43.8407L169.937 43.8209C170.535 43.7833 170.747 43.7634 170.747 43.5356V33.4628C170.747 32.2877 170.632 32.0974 169.957 31.9647L169.531 31.8894L169.552 31.814L172.097 31.1878V43.5732C172.097 43.7258 172.194 43.7634 173.063 43.8189L173.333 43.8388L173.392 43.9517H169.572L169.61 43.8388L169.608 43.8407Z" fill="#FAF8F8"/>
<path d="M173.851 40.1231C173.851 37.6956 175.472 35.6664 177.923 35.6664C179.872 35.6664 180.971 36.8237 180.971 38.2643C180.971 38.3595 180.951 38.3971 180.932 38.5299L175.395 38.5101C175.357 38.7954 175.319 39.2492 175.319 39.5346C175.319 41.7719 176.651 43.2522 178.348 43.2522C179.525 43.2522 180.298 42.8737 181.029 41.7342L181.164 41.7917C180.295 43.272 179.253 44.2014 177.691 44.2014C175.51 44.2014 173.851 42.4001 173.851 40.1231ZM179.467 38.302C179.467 37.0318 178.965 35.8546 177.788 35.8546C176.728 35.8546 175.742 36.9921 175.434 38.3396L179.465 38.302H179.467Z" fill="#FAF8F8"/>
<path d="M181.821 40.1231C181.821 37.658 183.577 35.6664 186.105 35.6664C187.649 35.6664 188.883 36.3679 188.883 37.4122C188.883 37.9057 188.457 38.3218 188.014 38.3218C187.512 38.3218 187.145 37.9612 187.145 37.5252C187.145 36.9188 187.53 36.7286 187.53 36.576C187.53 36.3302 186.875 35.817 186.141 35.817C184.597 35.817 183.285 37.3528 183.285 39.5168C183.285 41.6807 184.617 43.2542 186.315 43.2542C187.492 43.2542 188.205 42.8757 188.919 41.7362L189.074 41.7937C188.225 43.274 187.203 44.2034 185.639 44.2034C183.478 44.2034 181.819 42.402 181.819 40.1251L181.821 40.1231Z" fill="#FAF8F8"/>
<path d="M190.582 42.3624L190.697 36.6334L189.191 36.6136L189.249 36.461L191.912 34.2237L192.086 34.2436L192.065 35.9319H194.631L194.361 36.5958H192.065L191.93 42.2098C191.91 43.0263 192.412 43.4246 193.166 43.4246C193.92 43.4246 194.382 43.0441 194.825 42.6854L194.922 42.7429C194.15 43.5019 193.378 44.2034 192.376 44.2034C191.43 44.2034 190.562 43.7852 190.582 42.3644V42.3624Z" fill="#FAF8F8"/>
<path d="M195.289 43.8407L195.635 43.8209C196.234 43.7833 196.446 43.7634 196.446 43.5356V38.0166C196.446 36.8593 196.311 36.6315 195.655 36.5363L195.212 36.461L195.232 36.3857L197.798 35.7219V43.5752C197.798 43.7278 197.913 43.7654 198.764 43.8209L199.034 43.8407L199.092 43.9537H195.234L195.293 43.8407H195.289ZM195.984 33.0665C195.984 32.688 196.274 32.1172 196.95 32.1172C197.625 32.1172 197.895 32.686 197.895 33.0665C197.895 33.4469 197.605 33.9959 196.95 33.9959C196.294 33.9959 195.984 33.445 195.984 33.0665Z" fill="#FAF8F8"/>
<path d="M199.554 39.9706C199.554 37.6005 201.427 35.6644 203.876 35.6644C206.325 35.6644 208.177 37.5054 208.177 39.8952C208.177 42.2851 206.307 44.2014 203.876 44.2014C201.445 44.2014 199.554 42.3624 199.554 39.9725V39.9706ZM206.557 40.0657C206.557 38.6052 206.228 37.2398 205.496 36.5185C205.071 36.1202 204.531 35.817 203.837 35.817C202.178 35.817 201.156 37.6956 201.156 39.7248C201.156 41.2804 201.503 42.6656 202.257 43.3849C202.682 43.8031 203.241 44.0488 203.898 44.0488C205.48 44.0488 206.561 42.19 206.561 40.0657H206.557Z" fill="#FAF8F8"/>
<path d="M208.853 43.8407L209.199 43.8209C209.798 43.7833 210.01 43.7634 210.01 43.5356V38.0345C210.01 36.8593 209.875 36.6315 209.219 36.5363L208.776 36.461L208.796 36.3857L211.382 35.7219L211.324 37.3528L211.382 37.3904C212.116 36.7642 213.273 35.6822 214.644 35.6822C215.242 35.6822 215.744 35.8527 216.091 36.2133C216.516 36.6315 216.708 37.2378 216.708 38.0523V43.5534C216.708 43.6663 216.708 43.7436 217.673 43.8189L217.944 43.8387L218.002 43.9517H214.162L214.22 43.8387L214.567 43.8189C215.242 43.7813 215.357 43.6862 215.357 43.5336V38.298C215.357 37.1784 214.779 36.6295 213.66 36.6295C212.753 36.6295 211.981 37.0476 211.364 37.6163V43.5732C211.364 43.7258 211.479 43.7634 212.33 43.8189L212.6 43.8387L212.658 43.9517H208.8L208.859 43.8387L208.853 43.8407Z" fill="#FAF8F8"/>
</g>
</g>
<defs>
<filter id="filter0_d_546_736" x="0" y="0" width="224" height="55" filterUnits="userSpaceOnUse" color-interpolation-filters="sRGB">
<feFlood flood-opacity="0" result="BackgroundImageFix"/>
<feColorMatrix in="SourceAlpha" type="matrix" values="0 0 0 0 0 0 0 0 0 0 0 0 0 0 0 0 0 0 127 0" result="hardAlpha"/>
<feOffset dy="4"/>
<feGaussianBlur stdDeviation="3"/>
<feComposite in2="hardAlpha" operator="out"/>
<feColorMatrix type="matrix" values="0 0 0 0 0 0 0 0 0 0 0 0 0 0 0 0 0 0 0.1 0"/>
<feBlend mode="normal" in2="BackgroundImageFix" result="effect1_dropShadow_546_736"/>
<feBlend mode="normal" in="SourceGraphic" in2="effect1_dropShadow_546_736" result="shape"/>
</filter>
<clipPath id="clip0_546_736">
<rect width="212" height="43" fill="white" transform="translate(6 2)"/>
</clipPath>
</defs>
</svg>
